<?xml version="1.0" standalone="no"?>
<!DOCTYPE svg PUBLIC "-//W3C//DTD SVG 20010904//EN"
 "http://www.w3.org/TR/2001/REC-SVG-20010904/DTD/svg10.dtd">
<svg version="1.0" xmlns="http://www.w3.org/2000/svg"
 width="290.000000pt" height="290.000000pt" viewBox="0 0 290.000000 290.000000"
 preserveAspectRatio="xMidYMid meet">
<metadata>
Created by potrace 1.14, written by Peter Selinger 2001-2017
</metadata>
<g transform="translate(0.000000,290.000000) scale(0.100000,-0.100000)"
fill="#000000" stroke="none">
<path d="M1295 2894 c-207 -32 -359 -79 -515 -160 -141 -73 -253 -159 -375
-286 -195 -203 -316 -431 -377 -711 -32 -147 -32 -427 0 -574 30 -138 73 -257
139 -384 72 -139 158 -252 285 -374 203 -195 431 -316 711 -377 147 -32 427
-32 574 0 138 30 257 73 384 139 139 72 252 158 374 285 195 203 316 431 377
711 32 147 32 427 0 574 -45 208 -138 417 -257 574 -82 110 -249 269 -355 340
-161 107 -332 180 -518 220 -94 20 -372 34 -447 23z m415 -169 c249 -54 458
-165 638 -339 196 -190 315 -401 374 -666 30 -138 33 -389 5 -520 -55 -258
-164 -465 -341 -648 -190 -196 -401 -315 -666 -374 -138 -30 -389 -33 -520 -5
-258 55 -465 164 -648 341 -196 190 -315 401 -374 666 -30 138 -33 389 -5 520
55 255 163 463 337 644 211 220 455 346 767 396 84 13 345 4 433 -15z"/>
<path d="M1851 2398 c-70 -28 -153 -105 -187 -174 -31 -62 -43 -167 -26 -226
l10 -38 -334 -171 -334 -170 -51 45 c-81 73 -202 107 -309 86 -229 -44 -358
-275 -266 -477 35 -76 103 -144 184 -181 48 -23 70 -27 147 -27 76 0 99 4 146
27 31 14 75 42 97 62 l40 36 330 -142 330 -142 4 -72 c6 -95 41 -167 113 -233
72 -65 141 -91 245 -91 105 0 173 25 246 92 77 71 106 132 112 233 3 65 0 91
-18 137 -63 167 -260 264 -436 213 -69 -20 -143 -64 -182 -110 l-27 -32 -321
139 -321 139 2 81 2 80 40 23 c22 12 175 91 339 175 l299 154 53 -36 c73 -51
114 -63 217 -63 82 0 97 3 157 33 82 40 149 111 178 190 30 79 25 195 -13 268
-34 68 -123 147 -192 173 -76 29 -199 28 -274 -1z"/>
</g>
</svg>
