<svg width="22" height="17" viewBox="0 0 22 17" fill="none" xmlns="http://www.w3.org/2000/svg">
<path d="M21.4097 12.9275L16.4896 8.17964C17.4128 6.15767 17.0177 3.706 15.3038 2.05212C13.0708 -0.102677 9.45635 -0.102968 7.22308 2.05212C4.9953 4.20186 4.9953 7.69975 7.22308 9.84949C8.99338 11.5578 11.5878 11.883 13.6589 10.9593L18.5539 15.6828C19.3431 16.4444 20.6206 16.4445 21.4098 15.6827C22.1969 14.923 22.1968 13.6871 21.4097 12.9275ZM8.1347 8.97016C6.40938 7.30529 6.40938 4.59635 8.1347 2.93144C9.86384 1.26284 12.6627 1.26255 14.3922 2.93144C16.1175 4.59635 16.1175 7.30529 14.3922 8.97016C12.663 10.6388 9.8641 10.6391 8.1347 8.97016ZM20.4981 14.8035C20.2128 15.0789 19.7509 15.079 19.4655 14.8035L14.7888 10.2906C15.1733 9.99869 15.5159 9.66347 15.8133 9.28614L20.498 13.8067C20.7828 14.0816 20.7828 14.5287 20.4981 14.8035Z" fill="white"/>
<path d="M0.64456 7.88736H3.39305C3.74902 7.88736 4.03761 7.60894 4.03761 7.26552C4.03761 6.9221 3.74902 6.64368 3.39305 6.64368H0.64456C0.288591 6.64368 0 6.9221 0 7.26552C0 7.60894 0.288591 7.88736 0.64456 7.88736Z" fill="white"/>
<path d="M0.64456 10.5404H4.42375C4.77972 10.5404 5.06831 10.262 5.06831 9.91859C5.06831 9.57517 4.77972 9.29675 4.42375 9.29675H0.64456C0.288591 9.29675 0 9.57517 0 9.91859C0 10.262 0.288591 10.5404 0.64456 10.5404Z" fill="white"/>
<path d="M0.64456 13.1936H7.17228C7.52825 13.1936 7.81684 12.9152 7.81684 12.5718C7.81684 12.2284 7.52825 11.95 7.17228 11.95H0.64456C0.288591 11.95 0 12.2284 0 12.5718C0 12.9152 0.288591 13.1936 0.64456 13.1936Z" fill="white"/>
<path d="M14.7307 14.6031H0.64456C0.288591 14.6031 0 14.8816 0 15.225C0 15.5684 0.288591 15.8468 0.64456 15.8468H14.7307C15.0867 15.8468 15.3753 15.5684 15.3753 15.225C15.3753 14.8816 15.0867 14.6031 14.7307 14.6031Z" fill="white"/>
</svg>
