<svg width="20" height="21" viewBox="0 0 20 21" fill="none" xmlns="http://www.w3.org/2000/svg">
<path d="M11.8323 10.6367L19.6199 2.96672C20.1267 2.46782 20.1267 1.66116 19.6199 1.16226C19.1133 0.663361 18.2943 0.663361 17.7877 1.16226L9.99988 8.83226L2.21228 1.16226C1.70548 0.663361 0.886669 0.663361 0.380103 1.16226C-0.126701 1.66116 -0.126701 2.46782 0.380103 2.96672L8.1677 10.6367L0.380103 18.3067C-0.126701 18.8056 -0.126701 19.6123 0.380103 20.1112C0.632555 20.36 0.964493 20.4851 1.29619 20.4851C1.62789 20.4851 1.95959 20.36 2.21228 20.1112L9.99988 12.4412L17.7877 20.1112C18.0404 20.36 18.3721 20.4851 18.7038 20.4851C19.0355 20.4851 19.3672 20.36 19.6199 20.1112C20.1267 19.6123 20.1267 18.8056 19.6199 18.3067L11.8323 10.6367Z" fill="white"/>
</svg>
