<svg width="20" height="20" viewBox="0 0 20 20" fill="none" xmlns="http://www.w3.org/2000/svg">
<g clip-path="url(#clip0_51_1022)">
<mask id="mask0_51_1022" style="mask-type:alpha" maskUnits="userSpaceOnUse" x="0" y="0" width="20" height="20">
<path d="M12.3892 4.13026C11.9628 4.5335 11.7349 5.0199 11.7349 5.53539C11.7349 6.04672 11.9586 6.53727 12.3849 6.95714L13.7146 8.27082C13.6555 8.3789 13.6007 8.48699 13.5458 8.59087C13.4698 8.74057 13.3981 8.88188 13.3221 9.00246C12.5285 10.233 11.4943 11.3513 10.1562 12.4238C9.48928 12.9435 8.92789 13.2927 8.358 13.5463C8.04141 13.2054 7.71216 12.8894 7.39557 12.5818C7.27738 12.4654 7.15497 12.349 7.03678 12.2326C6.15034 11.3596 5.00219 11.3596 4.11576 12.2326L2.96338 13.3675C2.83253 13.4964 2.69745 13.6294 2.56237 13.7541C2.30067 14.0036 2.03051 14.2655 1.77724 14.5357C1.37202 14.939 1.15674 15.4212 1.15674 15.9283C1.15674 16.4355 1.37202 16.926 1.77724 17.3418C1.78147 17.3459 1.78147 17.3459 1.78569 17.3501L3.23354 18.7635C3.77384 19.2957 4.43234 19.5992 5.19636 19.6656C6.42894 19.7654 7.57709 19.4079 8.32845 19.1336C10.1731 18.4601 11.8827 17.454 13.7146 15.9533C15.9222 14.1324 17.6656 11.9416 18.894 9.43896C19.3541 8.48283 19.8986 7.20657 19.9915 5.78066C19.9956 5.69336 19.9999 5.6019 19.9999 5.51875C19.9999 4.55845 19.6495 3.75195 18.953 3.12007C18.9446 3.1159 18.9404 3.10759 18.932 3.10343C18.666 2.88726 18.4254 2.63783 18.1679 2.37593C17.9948 2.19717 17.8134 2.01425 17.6234 1.8355C17.1886 1.42393 16.6821 1.20776 16.1628 1.20776C15.6395 1.20776 15.1371 1.4281 14.715 1.84797L12.3892 4.13026ZM16.8341 2.64199C16.8341 2.64615 16.8382 2.64615 16.8341 2.64199C17.0114 2.80412 17.1717 2.9704 17.349 3.14917C17.6108 3.41938 17.8851 3.69375 18.1933 3.9515C18.6491 4.37137 18.8644 4.86608 18.8644 5.5146C18.8644 5.57695 18.8644 5.64347 18.8601 5.70583C18.78 6.94052 18.2903 8.0879 17.8724 8.94842C16.7159 11.3014 15.0738 13.3675 12.9928 15.0845C11.2579 16.502 9.65389 17.4499 7.93166 18.0776C6.8806 18.4642 6.06169 18.6056 5.28923 18.5432C4.79536 18.5016 4.3859 18.3146 4.03556 17.9695L2.59615 16.5519C2.40197 16.3482 2.29644 16.1321 2.29644 15.92C2.29644 15.6581 2.45684 15.4461 2.59192 15.3131C2.59615 15.3089 2.60036 15.3048 2.60459 15.3006C2.84519 15.047 3.09424 14.8059 3.36017 14.5523C3.49524 14.4234 3.63032 14.2904 3.76962 14.1574L4.92199 13.0224C5.36943 12.5818 5.7831 12.5818 6.23055 13.0224C6.35296 13.143 6.47536 13.2594 6.59356 13.38C6.95658 13.7292 7.29427 14.0618 7.62352 14.4234C7.63196 14.4317 7.63618 14.4401 7.64463 14.4442C8.00764 14.8018 8.36222 14.7352 8.60282 14.6604C8.61549 14.6563 8.62815 14.6521 8.64081 14.6479C9.36684 14.3528 10.0507 13.9371 10.8654 13.3051L10.8695 13.301C12.3048 12.1536 13.4234 10.9439 14.2802 9.60946C14.39 9.43896 14.4787 9.26434 14.5631 9.09811C14.639 8.94842 14.7108 8.80711 14.7868 8.68653C14.7952 8.66992 14.8079 8.6533 14.8163 8.63661C14.8881 8.4953 14.9219 8.36227 14.9219 8.22508C14.9219 7.88004 14.7023 7.66387 14.6306 7.59319L13.187 6.17143C13.0435 6.0301 12.8704 5.8056 12.8704 5.5437C12.8704 5.28595 13.035 5.07394 13.1785 4.94507C13.1828 4.94091 13.1828 4.94091 13.187 4.93675L15.5128 2.64615C15.9434 2.21795 16.3866 2.21795 16.8341 2.64199Z" fill="black"/>
<path d="M4.75838 9.05241C4.94411 7.96326 5.46753 6.97386 6.26955 6.18399C7.07156 5.39413 8.07619 4.88279 9.18212 4.69572C9.46073 4.64999 9.65491 4.41304 9.65491 4.14282C9.65491 4.10956 9.65065 4.08046 9.64647 4.0472C9.59578 3.73957 9.3003 3.53587 8.98795 3.58576C7.64985 3.81024 6.42995 4.43382 5.46331 5.38581C4.49667 6.33781 3.8635 7.53923 3.63556 8.85707C3.58491 9.16468 3.79174 9.45157 4.09988 9.50561C4.40803 9.55965 4.70772 9.36011 4.75838 9.05241Z" fill="black"/>
<path d="M8.82243 0.0232044C6.61899 0.393194 4.61395 1.41586 3.01836 2.98727C1.42277 4.55869 0.384369 6.53334 0.00868773 8.70336C-0.046187 9.00686 0.16487 9.29375 0.473013 9.34779C0.785377 9.39763 1.07663 9.19398 1.13151 8.88628C1.46498 6.94907 2.39785 5.18227 3.82037 3.77714C5.24712 2.37201 7.0411 1.45743 9.00817 1.12902C9.28678 1.08329 9.48096 0.846326 9.48096 0.57611C9.48096 0.542853 9.4767 0.513752 9.47243 0.480494C9.42609 0.17702 9.13061 -0.0308385 8.82243 0.0232044Z" fill="black"/>
</mask>
<g mask="url(#mask0_51_1022)">
<path d="M0 19.697L20 19.697L20 5.14984e-05L0 5.14984e-05L0 19.697Z" fill="white"/>
</g>
</g>
<defs>
<clipPath id="clip0_51_1022">
<rect width="20" height="19.697" fill="white"/>
</clipPath>
</defs>
</svg>
