<svg xmlns="http://www.w3.org/2000/svg" width="28" height="20" fill="none"><g fill="#AAB1BF" opacity=".7"><path d="m26.665 15.794-6.061-6.003a6.933 6.933 0 0 0-1.461-7.748c-2.751-2.724-7.204-2.724-9.956 0a6.932 6.932 0 0 0 0 9.86c2.181 2.16 5.378 2.57 7.93 1.402l6.03 5.973a2.504 2.504 0 0 0 3.518 0 2.45 2.45 0 0 0 0-3.484ZM10.31 10.79a5.368 5.368 0 0 1 0-7.635 5.486 5.486 0 0 1 7.71 0 5.368 5.368 0 0 1 0 7.636 5.486 5.486 0 0 1-7.71 0Zm15.232 7.376a.905.905 0 0 1-1.272 0l-5.762-5.706c.474-.37.896-.793 1.262-1.27l5.772 5.716c.35.347.35.913 0 1.26ZM1.082 9.421h3.386a.79.79 0 0 0 .794-.786.79.79 0 0 0-.794-.786H1.082a.79.79 0 0 0-.794.786.79.79 0 0 0 .794.786ZM1.082 12.776h4.656a.79.79 0 0 0 .794-.786.79.79 0 0 0-.794-.787H1.082a.79.79 0 0 0-.794.787.79.79 0 0 0 .794.786ZM1.082 16.13h8.042a.79.79 0 0 0 .794-.786.79.79 0 0 0-.794-.786H1.082a.79.79 0 0 0-.794.786.79.79 0 0 0 .794.787ZM18.436 17.913H1.082a.79.79 0 0 0-.794.786.79.79 0 0 0 .794.786h17.354a.79.79 0 0 0 .794-.786.79.79 0 0 0-.794-.786Z"/></g></svg>