<svg xmlns="http://www.w3.org/2000/svg" width="22" height="17" fill="none"><path fill="#fff" d="M21.41 12.928 16.49 8.18a5.38 5.38 0 0 0-1.186-6.128c-2.233-2.155-5.848-2.155-8.08 0a5.384 5.384 0 0 0 0 7.797c1.77 1.709 4.364 2.034 6.435 1.11l4.895 4.724a2.07 2.07 0 0 0 2.856 0 1.903 1.903 0 0 0 0-2.755ZM8.135 8.97a4.17 4.17 0 0 1 0-6.039c1.729-1.668 4.528-1.668 6.257 0a4.17 4.17 0 0 1 0 6.04c-1.729 1.668-4.528 1.668-6.257 0Zm12.363 5.833a.748.748 0 0 1-1.033 0l-4.676-4.512a5.649 5.649 0 0 0 1.024-1.005l4.685 4.52a.688.688 0 0 1 0 .998ZM.645 7.887h2.748a.634.634 0 0 0 .645-.621.634.634 0 0 0-.645-.622H.645A.634.634 0 0 0 0 7.266c0 .343.289.621.645.621ZM.645 10.54h3.779a.634.634 0 0 0 .644-.621.634.634 0 0 0-.644-.622H.644A.634.634 0 0 0 0 9.919c0 .343.289.621.645.621ZM.645 13.194h6.527a.634.634 0 0 0 .645-.622.634.634 0 0 0-.645-.622H.645a.634.634 0 0 0-.645.622c0 .343.289.622.645.622ZM14.73 14.603H.646a.634.634 0 0 0-.645.622c0 .343.289.622.645.622H14.73a.634.634 0 0 0 .644-.622.634.634 0 0 0-.644-.622Z"/></svg>