<svg xmlns="http://www.w3.org/2000/svg" xml:space="preserve" width="74" height="74" fill="#1A1A25" viewBox="0 0 388.055 388.055"><path d="M288.428 136.455c-26-32.4-53.2-66.4-52.4-128.4 0-3.2-1.6-5.6-4.4-7.2-2.8-1.2-6-1.2-8.4.4-43.6 31.2-82.4 99.6-71.2 182.8-15.2-8.8-24.4-23.6-34.8-39.2-3.2-5.2-6.4-10.4-10-15.2-1.6-2-4-3.6-6.8-3.2-2.8 0-5.2 1.6-6.4 3.6-20.8 32.4-42 71.6-42 114 0 83.6 58.8 144 140 144 82 0 144-62 144-144 0-48.4-24-78.4-47.6-107.6zm-96.4 235.6c-72 0-124-54-124-128 0-34 15.6-66.8 33.2-95.2.8 1.6 2 2.8 2.8 4.4 10.8 16.8 21.6 33.6 40 44.4 5.2 3.2 11.6 3.2 16.8 0 5.2-3.2 8-9.2 7.2-15.6-9.6-68.4 18-126 52.4-157.2 4 57.6 31.2 91.6 55.6 122 23.6 29.2 44 54.4 44 97.2 0 72.8-55.2 128-128 128z"/><path d="M300.028 220.055c-4.4 0-8 3.6-8 8 0 26.4-6.8 50.4-20.8 71.6-2.4 3.6-1.2 8.8 2.4 11.2 1.2.8 2.8 1.2 4.4 1.2 2.8 0 5.2-1.2 6.8-3.6 15.2-24 23.2-50.8 23.2-80.4 0-4.4-3.6-8-8-8zM267.228 318.055c-3.2-2.8-8.4-2.4-11.2.8-2 2.4-4.8 4.8-7.6 7.2-3.2 2.8-3.6 8-.8 11.2 1.6 2 4 2.8 6 2.8s3.6-.8 5.2-2c3.2-2.8 6.4-5.6 9.2-8.8 2.8-3.2 2.4-8.4-.8-11.2z"/></svg>