<svg xmlns="http://www.w3.org/2000/svg" xml:space="preserve" width="74" height="74" fill="#1A1A25" viewBox="0 0 64 64"><path d="M49 3h-4c-1.7 0-3 1.3-3 3v32.2l-1.2-1.4a7.79 7.79 0 0 0-6-2.8c-4.3 0-7.8 3.5-7.8 7.8V54c0 3.9 3.1 7 7 7h5c7.2 0 13-5.8 13-13V6c0-1.7-1.3-3-3-3zm-4 2h4c.6 0 1 .4 1 1v5h-6V6c0-.6.4-1 1-1zm-6 54h-5c-2.8 0-5-2.2-5-5V41.8c0-3.2 2.6-5.8 5.8-5.8 1.7 0 3.4.8 4.5 2.1l3 3.5c.3.3.7.4 1.1.3.4-.1.7-.5.7-.9V13h6v35c-.1 6.1-5 11-11.1 11z"/><path d="M37 22.2V10c0-3.9-3.1-7-7-7h-5c-7.2 0-13 5.8-13 13v42c0 1.7 1.3 3 3 3h4c1.7 0 3-1.3 3-3V25.8l1.2 1.4c1.5 1.8 3.7 2.8 6 2.8 4.3 0 7.8-3.5 7.8-7.8zM19 59h-4c-.6 0-1-.4-1-1v-5h6v5c0 .6-.4 1-1 1zm5.7-33.1-3-3.5c-.3-.3-.7-.4-1.1-.3-.3.1-.6.5-.6.9v28h-6V16c0-6.1 4.9-11 11-11h5c2.8 0 5 2.2 5 5v12.2c0 3.2-2.6 5.8-5.8 5.8-1.7 0-3.4-.8-4.5-2.1z"/></svg>