<svg xmlns="http://www.w3.org/2000/svg" xml:space="preserve" width="74" height="74" fill="#1A1A25" stroke="#1A1A25" viewBox="0 0 512 512"><path d="M420.875 0H91.126C67.412 0 48.118 19.293 48.118 43.008v425.983c0 23.716 19.294 43.008 43.008 43.008h329.749c23.714 0 43.008-19.293 43.007-43.008V43.008C463.882 19.293 444.589 0 420.875 0zm26.105 468.992c0 14.395-11.711 26.107-26.105 26.107H91.126c-14.395 0-26.107-11.712-26.107-26.107V43.008c0-14.395 11.712-26.107 26.107-26.107h329.749c14.395 0 26.105 11.712 26.105 26.107v425.984z"/><circle cx="255.995" cy="37.105" r="8.461"/><circle cx="255.995" cy="475.549" r="14.584"/></svg>