<svg xmlns="http://www.w3.org/2000/svg" xml:space="preserve" width="74" height="74" fill="#1A1A25" viewBox="0 0 64 64"><path d="M32 35c-1.7 0-3 1.3-3 3s1.3 3 3 3 3-1.3 3-3-1.3-3-3-3zm0 4c-.6 0-1-.4-1-1s.4-1 1-1 1 .4 1 1-.4 1-1 1zM32 31c-1.8 0-3.5.7-4.7 1.9-.4.4-.4 1 0 1.4.4.4 1 .4 1.4 0 .9-.9 2.1-1.3 3.4-1.3s2.5.5 3.4 1.3c.2.2.4.3.7.3.3 0 .5-.1.7-.3.4-.4.4-1 0-1.4-1.4-1.2-3.1-1.9-4.9-1.9z"/><path d="M32 27c-2.8 0-5.4 1-7.5 2.9-.4.4-.4 1-.1 1.4.4.4 1 .4 1.4.1 1.7-1.5 3.8-2.4 6.1-2.4s4.4.9 6.1 2.4c.2.2.4.3.7.3.3 0 .5-.1.7-.3.4-.4.4-1-.1-1.4-1.9-2-4.5-3-7.3-3z"/><path d="M32 23c-3.8 0-7.4 1.4-10.2 4-.4.4-.4 1-.1 1.4.4.4 1 .4 1.4.1 2.4-2.2 5.5-3.5 8.8-3.5s6.4 1.2 8.8 3.5c.2.2.4.3.7.3.3 0 .5-.1.7-.3.4-.4.4-1-.1-1.4-2.6-2.7-6.2-4.1-10-4.1z"/><path d="M55.2 33c.4 1.2 1.5 2 2.8 2 1.7 0 3-1.3 3-3s-1.3-3-3-3c-1.3 0-2.4.8-2.8 2H49v-4h3c.6 0 1-.4 1-1v-3h2.2c.4 1.2 1.5 2 2.8 2 1.7 0 3-1.3 3-3s-1.3-3-3-3c-1.3 0-2.4.8-2.8 2H52c-.6 0-1 .4-1 1v3h-2v-7c0-1.7-1.3-3-3-3h-7v-2h3c.6 0 1-.4 1-1V8.8c1.2-.4 2-1.5 2-2.8 0-1.7-1.3-3-3-3s-3 1.3-3 3c0 1.3.8 2.4 2 2.8V11h-3c-.6 0-1 .4-1 1v3h-4V8.8c1.2-.4 2-1.5 2-2.8 0-1.7-1.3-3-3-3s-3 1.3-3 3c0 1.3.8 2.4 2 2.8V15h-4v-3c0-.6-.4-1-1-1h-3V8.8c1.2-.4 2-1.5 2-2.8 0-1.7-1.3-3-3-3s-3 1.3-3 3c0 1.3.8 2.4 2 2.8V12c0 .6.4 1 1 1h3v2h-7c-1.7 0-3 1.3-3 3v7h-2v-3c0-.6-.4-1-1-1H8.8c-.4-1.2-1.5-2-2.8-2-1.7 0-3 1.3-3 3s1.3 3 3 3c1.3 0 2.4-.8 2.8-2H11v3c0 .6.4 1 1 1h3v4H8.8c-.4-1.2-1.5-2-2.8-2-1.7 0-3 1.3-3 3s1.3 3 3 3c1.3 0 2.4-.8 2.8-2H15v4h-3c-.6 0-1 .4-1 1v3H8.8c-.4-1.2-1.5-2-2.8-2-1.7 0-3 1.3-3 3s1.3 3 3 3c1.3 0 2.4-.8 2.8-2H12c.6 0 1-.4 1-1v-3h2v7c0 1.7 1.3 3 3 3h7v2h-3c-.6 0-1 .4-1 1v3.2c-1.2.4-2 1.5-2 2.8 0 1.7 1.3 3 3 3s3-1.3 3-3c0-1.3-.8-2.4-2-2.8V53h3c.6 0 1-.4 1-1v-3h4v6.2c-1.2.4-2 1.5-2 2.8 0 1.7 1.3 3 3 3s3-1.3 3-3c0-1.3-.8-2.4-2-2.8V49h4v3c0 .6.4 1 1 1h3v2.2c-1.2.4-2 1.5-2 2.8 0 1.7 1.3 3 3 3s3-1.3 3-3c0-1.3-.8-2.4-2-2.8V52c0-.6-.4-1-1-1h-3v-2h7c1.7 0 3-1.3 3-3v-7h2v3c0 .6.4 1 1 1h3.2c.4 1.2 1.5 2 2.8 2 1.7 0 3-1.3 3-3s-1.3-3-3-3c-1.3 0-2.4.8-2.8 2H53v-3c0-.6-.4-1-1-1h-3v-4h6.2zm2.8-2c.6 0 1 .4 1 1s-.4 1-1 1-1-.4-1-1 .4-1 1-1zm0-10c.6 0 1 .4 1 1s-.4 1-1 1-1-.4-1-1 .4-1 1-1zM42 5c.6 0 1 .4 1 1s-.4 1-1 1-1-.4-1-1 .4-1 1-1zM32 5c.6 0 1 .4 1 1s-.4 1-1 1-1-.4-1-1 .4-1 1-1zM22 5c.6 0 1 .4 1 1s-.4 1-1 1-1-.4-1-1 .4-1 1-1zM6 23c-.6 0-1-.4-1-1s.4-1 1-1 1 .4 1 1-.4 1-1 1zm0 10c-.6 0-1-.4-1-1s.4-1 1-1 1 .4 1 1-.4 1-1 1zm0 10c-.6 0-1-.4-1-1s.4-1 1-1 1 .4 1 1-.4 1-1 1zm16 16c-.6 0-1-.4-1-1s.4-1 1-1 1 .4 1 1-.4 1-1 1zm10 0c-.6 0-1-.4-1-1s.4-1 1-1 1 .4 1 1-.4 1-1 1zm10 0c-.6 0-1-.4-1-1s.4-1 1-1 1 .4 1 1-.4 1-1 1zm16-18c.6 0 1 .4 1 1s-.4 1-1 1-1-.4-1-1 .4-1 1-1zm-11 5c0 .6-.4 1-1 1H18c-.6 0-1-.4-1-1V18c0-.6.4-1 1-1h28c.6 0 1 .4 1 1v28z"/></svg>