<svg xmlns="http://www.w3.org/2000/svg" width="20" height="20" fill="none"><g clip-path="url(#a)"><mask id="b" width="20" height="20" x="0" y="0" maskUnits="userSpaceOnUse" style="mask-type:alpha"><path fill="#000" d="M12.39 4.13c-.427.404-.655.89-.655 1.405 0 .512.224 1.002.65 1.422l1.33 1.314c-.06.108-.114.216-.17.32-.075.15-.147.29-.223.411-.793 1.231-1.828 2.35-3.166 3.422-.667.52-1.228.869-1.798 1.122-.317-.34-.646-.657-.962-.964l-.36-.35c-.886-.872-2.034-.872-2.92 0l-1.153 1.136c-.13.128-.266.261-.4.386-.262.25-.532.511-.786.782-.405.403-.62.885-.62 1.392 0 .508.215.998.62 1.414l.009.008 1.448 1.413c.54.533 1.198.836 1.962.903 1.233.1 2.381-.258 3.132-.532 1.845-.674 3.555-1.68 5.387-3.18 2.207-1.822 3.95-4.012 5.179-6.515.46-.956 1.005-2.232 1.098-3.658.004-.088.008-.18.008-.262 0-.96-.35-1.767-1.047-2.399-.008-.004-.013-.012-.021-.017-.266-.216-.507-.465-.764-.727a16.469 16.469 0 0 0-.545-.54c-.434-.412-.94-.628-1.46-.628-.524 0-1.026.22-1.448.64L12.389 4.13Zm4.444-1.488c0 .004.004.004 0 0 .177.162.338.328.515.507.262.27.536.545.844.802.456.42.671.915.671 1.564 0 .062 0 .128-.004.19-.08 1.236-.57 2.383-.988 3.243-1.156 2.353-2.798 4.42-4.88 6.136-1.734 1.418-3.338 2.366-5.06 2.994-1.051.386-1.87.528-2.643.465a1.95 1.95 0 0 1-1.253-.573l-1.44-1.418c-.194-.204-.3-.42-.3-.632 0-.262.16-.474.296-.607l.013-.012c.24-.254.49-.495.755-.749.135-.129.27-.262.41-.395l1.152-1.135c.447-.44.861-.44 1.309 0 .122.121.244.237.363.358.363.35.7.682 1.03 1.043.008.009.012.017.02.021.364.358.718.291.959.216l.038-.012c.726-.295 1.41-.71 2.224-1.343l.005-.004c1.435-1.147 2.553-2.357 3.41-3.692.11-.17.199-.345.283-.51.076-.15.148-.292.224-.412.008-.017.02-.034.03-.05a.89.89 0 0 0 .105-.412c0-.345-.22-.561-.291-.632l-1.444-1.422c-.143-.14-.317-.365-.317-.627 0-.258.165-.47.309-.599l.008-.008 2.326-2.29c.43-.429.874-.429 1.321-.005ZM4.758 9.052A5.245 5.245 0 0 1 6.27 6.184a5.409 5.409 0 0 1 2.912-1.488.56.56 0 0 0 .473-.553.57.57 0 0 0-.667-.557 6.545 6.545 0 0 0-3.525 1.8 6.38 6.38 0 0 0-1.827 3.471.565.565 0 0 0 .464.649.563.563 0 0 0 .658-.454ZM8.822.023a10.767 10.767 0 0 0-5.804 2.964 10.496 10.496 0 0 0-3.01 5.716.56.56 0 0 0 .465.645.572.572 0 0 0 .659-.462A9.398 9.398 0 0 1 3.82 3.777 9.613 9.613 0 0 1 9.008 1.13a.56.56 0 0 0 .473-.553.558.558 0 0 0-.659-.553Z"/></mask><g mask="url(#b)"><path fill="#fff" d="M0 19.697h20V0H0v19.697Z"/></g></g><defs><clipPath id="a"><path fill="#fff" d="M0 0h20v19.697H0z"/></clipPath></defs></svg>