<svg xmlns="http://www.w3.org/2000/svg" width="22" height="21" fill="none" viewBox="0 0 17 16"><path fill="#fff" d="M12.667 8a.667.667 0 0 0-.667.666V14a.667.667 0 0 1-.666.666H2A.667.667 0 0 1 1.333 14V4.666C1.333 4.3 1.633 4 2 4h5.334a.667.667 0 1 0 0-1.333H2c-1.103 0-2 .897-2 2V14c0 1.102.897 2 2 2h9.334c1.102 0 2-.898 2-2V8.666A.666.666 0 0 0 12.667 8Z"/><path fill="#fff" d="M6.253 7.393a.337.337 0 0 0-.092.17l-.47 2.357a.334.334 0 0 0 .392.392L8.44 9.84a.332.332 0 0 0 .17-.092l5.275-5.275-2.357-2.356-5.275 5.275ZM15.514.488a1.668 1.668 0 0 0-2.357 0l-.923.922 2.357 2.357.923-.923c.315-.314.488-.732.488-1.178 0-.445-.173-.864-.488-1.178Z"/></svg>