<svg xmlns="http://www.w3.org/2000/svg" width="74" height="74" fill="#1A1A25" viewBox="0 0 50 50"><path d="M25.063 0C22.5 0 20.59.09 19.155.406c-.718.16-1.332.387-1.843.75-.512.364-.918.926-1 1.563-.051.379-.06.367-.157.656-.097.29-.218.754-.375 1.688-.457 2.761-1.851 2.605-3.125 3.968-.047.051-.11.07-.156.125C10.996 10.25 10 12.008 10 14v22c0 1.992.996 3.75 2.5 4.844l.031.031c.043.031.082.066.125.094 1.25 1.343 2.606 1.234 3.125 4 .156.84.29 1.261.375 1.531.086.27.098.34.157.781.078.617.472 1.168.968 1.532.496.363 1.078.585 1.782.75 1.406.328 3.308.437 5.875.437 2.562 0 4.472-.09 5.906-.406.718-.16 1.332-.387 1.843-.75.512-.364.918-.926 1-1.563.051-.379.06-.367.157-.656.097-.29.218-.754.375-1.688.457-2.761 1.851-2.605 3.125-3.968.043-.028.082-.063.125-.094l.031-.031C39.004 39.75 40 37.992 40 36v-2c.55 0 1-.45 1-1v-6c0-.55-.45-1-1-1v-3a2.17 2.17 0 0 0 2-2.156v-3.688A2.17 2.17 0 0 0 40 15v-1c0-1.992-.996-3.75-2.5-4.844l-.031-.031c-.043-.031-.082-.066-.125-.094-1.25-1.344-2.606-1.234-3.125-4-.157-.84-.29-1.261-.375-1.531-.086-.27-.098-.34-.157-.781-.078-.617-.472-1.168-.968-1.531-.496-.364-1.078-.586-1.782-.75C29.532.108 27.63 0 25.063 0Zm0 2c2.503 0 4.343.121 5.437.375.547.129.871.29 1.031.406.16.117.145.14.157.219.07.535.167.836.25 1.094.082.258.167.535.312 1.312A6.769 6.769 0 0 0 33.313 8H16.718a6.544 6.544 0 0 0 1.031-2.625c.145-.867.238-1.156.313-1.375.074-.219.183-.496.25-1 .011-.086-.012-.098.156-.219.168-.12.527-.281 1.093-.406 1.13-.25 2.993-.375 5.5-.375ZM16 10h18c2.219 0 4 1.781 4 4v2.156c-.332.617-.563 1.508-.563 2.844 0 1.332.235 2.223.563 2.844V36c0 2.219-1.781 4-4 4H16c-2.219 0-4-1.781-4-4V14c0-2.219 1.781-4 4-4Zm13 4c-1.645 0-3 1.355-3 3s1.355 3 3 3 3-1.355 3-3-1.355-3-3-3Zm-7.5 1a2.518 2.518 0 0 0-2.5 2.5c0 1.367 1.133 2.5 2.5 2.5s2.5-1.133 2.5-2.5-1.133-2.5-2.5-2.5Zm7.5 1c.563 0 1 .438 1 1 0 .563-.438 1-1 1-.563 0-1-.438-1-1 0-.563.438-1 1-1Zm-12.5 1a1.5 1.5 0 1 0 0 3 1.5 1.5 0 0 0 0-3Zm5 0c.29 0 .5.21.5.5 0 .29-.21.5-.5.5-.29 0-.5-.21-.5-.5 0-.29.21-.5.5-.5Zm18.344 0c.101 0 .156.055.156.156v3.688c0 .101-.055.156-.156.156h-.032c-.011-.016-.015-.008-.03-.031-.134-.215-.344-.762-.344-1.969s.242-1.758.374-1.969c.02-.031.016-.011.032-.031ZM25 21c-2.2 0-4 1.8-4 4s1.8 4 4 4 4-1.8 4-4-1.8-4-4-4Zm-8 1c-1.645 0-3 1.355-3 3s1.355 3 3 3 3-1.355 3-3-1.355-3-3-3Zm16 0c-1.645 0-3 1.355-3 3s1.355 3 3 3 3-1.355 3-3-1.355-3-3-3Zm-8 1c1.117 0 2 .883 2 2s-.883 2-2 2-2-.883-2-2 .883-2 2-2Zm-8 1c.563 0 1 .438 1 1 0 .563-.438 1-1 1-.563 0-1-.438-1-1 0-.563.438-1 1-1Zm16 0c.563 0 1 .438 1 1 0 .563-.438 1-1 1-.563 0-1-.438-1-1 0-.563.438-1 1-1Zm.5 5a1.5 1.5 0 1 0 0 3 1.5 1.5 0 0 0 0-3ZM21 30c-1.645 0-3 1.355-3 3s1.355 3 3 3 3-1.355 3-3-1.355-3-3-3Zm7.5 0a2.518 2.518 0 0 0-2.5 2.5c0 1.367 1.133 2.5 2.5 2.5s2.5-1.133 2.5-2.5-1.133-2.5-2.5-2.5ZM21 32c.563 0 1 .438 1 1 0 .563-.438 1-1 1-.563 0-1-.438-1-1 0-.563.438-1 1-1Zm7.5 0c.29 0 .5.21.5.5 0 .29-.21.5-.5.5-.29 0-.5-.21-.5-.5 0-.29.21-.5.5-.5ZM16.687 42h16.594a6.544 6.544 0 0 0-1.031 2.625c-.145.867-.238 1.156-.313 1.375-.074.219-.183.496-.25 1-.011.086.012.098-.156.219-.168.12-.527.281-1.093.406-1.13.25-2.993.375-5.5.375-2.504 0-4.344-.121-5.438-.375-.547-.129-.871-.29-1.031-.406-.16-.117-.145-.14-.157-.219-.07-.535-.167-.836-.25-1.094-.082-.258-.167-.535-.312-1.312A6.769 6.769 0 0 0 16.687 42Z"/></svg>